# xmcd
# 
# Track frame offsets:
#   150
#   20075
#   34632
#   54184
#   72802
#   89550
#   107813
#   124195
#   142258
#   162648
#   179923
#   194713
#   211700
#   227577
#   243307
# 
# Disc length: 3478 seconds
# 
# Revision: 0
# Processed by: cddbd v1.5.2PL0 Copyright (c) Steve Scherf et al.
# Submitted via: Synapstar 1.0 
# 
DISCID=e00d940f
DTITLE=Various Artist - sc ch vol 138 8690
DYEAR=1900
DGENRE=Country
TTITLE0=The Soggy Bottom Boys - I Am A Man of Constant Sorrow
TTITLE1=Jamie O'Neal - When I Think About Angels
TTITLE2=Brad Paisley - Two People Fell In Love
TTITLE3=Neal McCoy - Beatin' It In
TTITLE4=Tammy Cochran - Angels In Waiting
TTITLE5=Tim McGraw - Grown Men Don't Cry
TTITLE6=Alan Jackson - When Somebody Loves You
TTITLE7=Tracy Byrd and Mark Chesnutt - A Good Way to Get on my Bad Side
TTITLE8=George Strait - If You Can Do Anything Else
TTITLE9=Loretta Lynn - I Can't Hear The Music
TTITLE10=Dolly Parton - A Tender Life
TTITLE11=Marshall Dyllon - You
TTITLE12=The Wilkinsons - I Wanna Be That Girl
TTITLE13=Cyndi Thomson - What I Really Meant To Say
TTITLE14=Trisha Yearwood - I Would've Loved You Anyway
EXTD=MediaType: Karaoke CD+G Producer: Sound Choice
EXTT0=
EXTT1=
EXTT2=
EXTT3=
EXTT4=
EXTT5=
EXTT6=
EXTT7=
EXTT8=
EXTT9=
EXTT10=
EXTT11=
EXTT12=
EXTT13=
EXTT14=
PLAYORDER=
